<?xml version="1.0" encoding="UTF-8"?> <svg xmlns="http://www.w3.org/2000/svg" xmlns:xlink="http://www.w3.org/1999/xlink" width="175.432" height="95.001" viewBox="0 0 175.432 95.001"><defs><clipPath id="clip-path"><rect id="Rectangle_76" data-name="Rectangle 76" width="175.432" height="95.001" transform="translate(0 0)" fill="#fff"></rect></clipPath></defs><g id="Group_80" data-name="Group 80" transform="translate(0 -0.005)"><g id="Group_79" data-name="Group 79" transform="translate(0 0.005)" clip-path="url(#clip-path)"><path id="Path_147" data-name="Path 147" d="M1988.6,988.837c-.041.04-.105.073-.119.121a2.917,2.917,0,0,1-1.58,1.8,5.618,5.618,0,0,1-2.434.6,8.923,8.923,0,0,1-5.264-1.4c-.148-.095-.282-.212-.44-.333a18.4,18.4,0,0,1,.91-1.634c.148.1.274.194.4.281a7.132,7.132,0,0,0,4.3,1.291,2.884,2.884,0,0,0,1.491-.406,1.477,1.477,0,0,0,.584-1.841,1.5,1.5,0,0,0-.536-.635,3.617,3.617,0,0,0-1.081-.516c-.691-.207-1.386-.4-2.08-.6a9.333,9.333,0,0,1-2.019-.767,2.807,2.807,0,0,1-1.1-1,3.034,3.034,0,0,1-.387-1.8,3.9,3.9,0,0,1,.286-1.285,3.492,3.492,0,0,1,1.6-1.738,4.918,4.918,0,0,1,1.826-.573,7.219,7.219,0,0,1,4.979,1.2,1.022,1.022,0,0,1,.133.12.441.441,0,0,1,.044.074.914.914,0,0,1-.06.207c-.239.439-.484.874-.747,1.345-.124-.077-.225-.133-.318-.2a5.523,5.523,0,0,0-3.813-1,2.5,2.5,0,0,0-1.079.349,1.612,1.612,0,0,0-.705,1.933,1.21,1.21,0,0,0,.716.773,10.477,10.477,0,0,0,1.234.466c.613.185,1.24.326,1.857.5a9.246,9.246,0,0,1,1.8.667,2.746,2.746,0,0,1,1.507,1.63c.009.031.058.05.088.075Z" transform="translate(-1813.17 -896.486)" fill="#fff"></path><path id="Path_148" data-name="Path 148" d="M867.445,992.848c-.148-.193-.382-.194-.586-.259a3.365,3.365,0,0,1-1.173-.558,4.322,4.322,0,0,1,.465-1.581c.139.062.279.13.422.189a4.4,4.4,0,0,0,2.411.308,1.849,1.849,0,0,0,1.475-1.1,4.462,4.462,0,0,0,.378-1.63c.038-.66.065-1.321.068-1.982.009-1.864,0-3.729,0-5.594a1.7,1.7,0,0,1,.062-.7,5.132,5.132,0,0,1,1.873-.012,3.806,3.806,0,0,1,.051.45c0,2.205.016,4.411,0,6.616a10.948,10.948,0,0,1-.265,2.685c-.065.251-.129.5-.215.75a3.232,3.232,0,0,1-2.318,2.159,1.745,1.745,0,0,0-.722.263Z" transform="translate(-793.24 -897.847)" fill="#fff"></path><path id="Path_149" data-name="Path 149" d="M40.748,38.354a2.467,2.467,0,0,0,.4.067c.6,0,1.2-.017,1.807-.006A.938.938,0,0,0,43.778,38c.119-.161.231-.328.339-.5q3.609-5.658,7.216-11.318,1.472-2.31,2.94-4.622c.054-.085.113-.166.163-.253a1.122,1.122,0,0,1,1.092-.6c1.908.019,3.816.008,5.723.008q3.675,0,7.35,0a1.242,1.242,0,0,1,.686.091.707.707,0,0,1,0,.083.238.238,0,0,1-.013.058.291.291,0,0,1-.026.054c-.021.034-.043.068-.066.1-.011.017-.024.032-.036.049-.023.033-.045.066-.068.1L54.35,41.885c-.023.033-.044.067-.065.1a.459.459,0,0,0-.027.054c-.008.018-.015.037-.027.07a1.651,1.651,0,0,0,.347.61q2.278,3.365,4.564,6.724l6.4,9.41q2.724,4.008,5.446,8.017a4.085,4.085,0,0,1,.46.753c-.129.018-.219.037-.31.043-.12.007-.241,0-.361,0-4.237,0-8.475-.015-12.712.014a1.864,1.864,0,0,1-1.739-.934q-4.94-7.523-9.912-15.024-.862-1.306-1.723-2.614c-.088-.134-.181-.265-.271-.4A1.5,1.5,0,0,0,42.989,48c-.581.033-1.164.015-1.746.023-.157,0-.315.014-.5.023a3.268,3.268,0,0,0-.056.358c-.009.2,0,.4,0,.6q0,8.85,0,17.7v.711a.943.943,0,0,1-.647.165c-.661.033-1.323.061-1.985.066q-2.8.021-5.6.019c-1.164,0-2.329-.018-3.493-.037-.257,0-.513-.048-.737-.071a.816.816,0,0,1-.119-.618c0-1.626,0-3.251-.005-4.877a1.453,1.453,0,0,0-.046-.617.2.2,0,0,0-.292.064q-.222.284-.428.58a16.272,16.272,0,0,1-5.161,4.8,12.2,12.2,0,0,1-5.12,1.623,21.369,21.369,0,0,1-4.327-.027,16.011,16.011,0,0,1-6.962-2.311,11.535,11.535,0,0,1-4.8-6.067,16.5,16.5,0,0,1-.93-6.45,13.954,13.954,0,0,1,.958-4.512,11.832,11.832,0,0,1,3.607-4.813,17.035,17.035,0,0,1,5.846-3.018,28.89,28.89,0,0,1,4.7-.992,41.441,41.441,0,0,1,5.342-.35c2.229,0,4.458,0,6.687,0a1.459,1.459,0,0,0,.7-.067.956.956,0,0,0,.148-.7c-.012-.862-.032-1.724-.049-2.587-.01-.5-.011-1-.036-1.5A6.275,6.275,0,0,0,25.84,30.6a5.038,5.038,0,0,0-1.873-1.059,9.45,9.45,0,0,0-5.918-.035,4.893,4.893,0,0,0-3.309,3.24,7.668,7.668,0,0,0-.22,1c-.052.275-.083.553-.121.816a.944.944,0,0,1-.606.09q-3.886.014-7.771.02-1.536,0-3.073,0c-.2,0-.4-.013-.617-.021A1.64,1.64,0,0,1,2.182,34a7.946,7.946,0,0,1,.147-1.975,11.388,11.388,0,0,1,3.3-6.287,18.584,18.584,0,0,1,8.841-5.014,29.024,29.024,0,0,1,4.685-.762,30.177,30.177,0,0,1,3.97-.069,28.732,28.732,0,0,1,4.177.509,1.321,1.321,0,0,0,.68.032,2.008,2.008,0,0,0,.062-.33c.014-.481.023-.963.023-1.444q0-8.881,0-17.761c0-.236.012-.473.019-.738.154-.021.268-.046.383-.05.962-.037,1.924-.094,2.887-.1C33.592,0,35.821,0,38.05.013c.7,0,1.4.044,2.1.074.156.007.31.044.489.071.013.119.032.215.034.312.005.221,0,.441,0,.662q0,18.182,0,36.365a2.247,2.247,0,0,0,.066.857m-12.72,8.832a2.931,2.931,0,0,0-.343-.063c-.4-.02-.8-.045-1.2-.045-2.287,0-4.575-.036-6.86.1a8.751,8.751,0,0,0-2.128.372A6.6,6.6,0,0,0,13.31,51.1a6.669,6.669,0,0,0-.556,3.93,4.542,4.542,0,0,0,2.575,3.553,6.825,6.825,0,0,0,2.542.672,10.364,10.364,0,0,0,3.573-.364A10.43,10.43,0,0,0,27.429,54.8a3.257,3.257,0,0,0,.628-1.967c-.011-1.685,0-3.37,0-5.055,0-.179-.014-.357-.024-.592" transform="translate(0.001 -0.005)" fill="#fff"></path><path id="Path_150" data-name="Path 150" d="M1649.326,25.713a1.836,1.836,0,0,0,.092-.357c.016-.4.024-.8.024-1.2q0-11.469,0-22.937c0-.258.007-.516.011-.8a4.342,4.342,0,0,1,1.269-.156c2.168-.022,4.336-.012,6.5-.013a1.011,1.011,0,0,1,.568.124c.088.593.139,64.363.054,67.07,0,.116-.026.231-.043.381-.721.064-1.42.023-2.117.03s-1.406,0-2.108,0-1.4.013-2.134-.013c-.064-.229-.133-.435-.18-.645-.329-1.467-.652-2.935-.981-4.4-.043-.19-.1-.377-.165-.605a1.155,1.155,0,0,0-.236.147q-.26.292-.5.6a14.857,14.857,0,0,1-5.22,4.27,15.512,15.512,0,0,1-4.706,1.4,21.329,21.329,0,0,1-3.782.208,17.214,17.214,0,0,1-8.151-2.25,15.894,15.894,0,0,1-4.861-4.515,22.435,22.435,0,0,1-3.7-8.423,36.233,36.233,0,0,1-.622-4.586,50.32,50.32,0,0,1-.1-5.533,36.26,36.26,0,0,1,.334-3.894,38.44,38.44,0,0,1,.864-4.546,24.428,24.428,0,0,1,3.475-7.821,16.954,16.954,0,0,1,4.192-4.36,14.859,14.859,0,0,1,5.715-2.431,20.041,20.041,0,0,1,5.032-.333A15.969,15.969,0,0,1,1644,21.63a14.709,14.709,0,0,1,4.346,3.183c.262.277.523.554.787.828.024.025.072.028.194.071m.1,18.625h0q0-2.558,0-5.116c0-1.665,0-3.33.019-5a2.7,2.7,0,0,0-.526-1.69c-.31-.419-.605-.851-.936-1.253a11.436,11.436,0,0,0-4.122-3.252,12.3,12.3,0,0,0-7.536-.8,9.39,9.39,0,0,0-6.445,4.53,16.681,16.681,0,0,0-1.683,3.586,30.819,30.819,0,0,0-1.453,8.206c-.034.741-.019,1.484-.024,2.226a31.968,31.968,0,0,0,.5,5.805,15.58,15.58,0,0,0,2.3,5.836,9.075,9.075,0,0,0,3.493,3.235,12.751,12.751,0,0,0,5.878,1.294,12.191,12.191,0,0,0,2.625-.306,10.526,10.526,0,0,0,5.078-2.6,15.262,15.262,0,0,0,2.274-2.792,3.416,3.416,0,0,0,.577-1.986c-.025-1.544-.021-3.089-.024-4.634q0-2.648,0-5.3" transform="translate(-1482.786 -0.225)" fill="#fff"></path><path id="Path_151" data-name="Path 151" d="M845.471,262.323a31.554,31.554,0,0,1-.613,6.215,23.719,23.719,0,0,1-4.619,10.335,18.109,18.109,0,0,1-10.919,6.753,24.647,24.647,0,0,1-6.166.466,21.613,21.613,0,0,1-6.919-1.436,17.926,17.926,0,0,1-7.106-5.12,23.129,23.129,0,0,1-4.935-9.792,31.133,31.133,0,0,1-.64-3.914,37.681,37.681,0,0,1-.192-5.768,29.572,29.572,0,0,1,2.018-9.971,21.942,21.942,0,0,1,5.467-7.9,17.457,17.457,0,0,1,8-4.206,24.6,24.6,0,0,1,3.326-.51,24.282,24.282,0,0,1,3.188-.081,18.787,18.787,0,0,1,15.7,8.409,23.357,23.357,0,0,1,3.83,9.52c.234,1.407.349,2.824.454,4.244.041.56.092,1.119.12,1.68.018.359,0,.72,0,1.08m-33.626-.691c0,.221,0,.441,0,.662a31.137,31.137,0,0,0,.614,5.915,18.085,18.085,0,0,0,2.646,6.474,10.205,10.205,0,0,0,7.879,4.7,13.638,13.638,0,0,0,3.662-.108,10.316,10.316,0,0,0,3.91-1.483,10.779,10.779,0,0,0,3.046-3.041,18.471,18.471,0,0,0,2.624-6.165,26.858,26.858,0,0,0,.636-4.036,22.383,22.383,0,0,0,.076-3.662c-.03-.38-.071-.759-.1-1.139a33.988,33.988,0,0,0-.489-4.179,18.138,18.138,0,0,0-2.929-6.994A10.144,10.144,0,0,0,829.131,245a11.219,11.219,0,0,0-4.144-.92,13.129,13.129,0,0,0-4.053.42,9.711,9.711,0,0,0-5.046,3.317,16.635,16.635,0,0,0-3.076,6.142,28.424,28.424,0,0,0-.968,7.673" transform="translate(-736.096 -217.506)" fill="#fff"></path><path id="Path_152" data-name="Path 152" d="M1365.686,284.871a55.627,55.627,0,0,1-8.01.168,2.4,2.4,0,0,1-.381-.1c-.081-.6-.127-43.978-.052-46.375,0-.116.027-.231.044-.373.158-.016.294-.039.43-.041,3.058-.06,6.443-.03,7.014.065.171.683.2,1.4.3,2.111.107.734.17,1.474.273,2.208.1.708.147,1.424.3,2.186.1-.069.181-.094.218-.148.205-.3.4-.6.6-.9a15.643,15.643,0,0,1,3.429-3.847,11.755,11.755,0,0,1,5.263-2.384,10.811,10.811,0,0,1,3.416-.069c.535.077,1.068.175,1.6.274a1.96,1.96,0,0,1,.359.151c-.049.889-.227,1.751-.354,2.619q-.186,1.279-.373,2.559c-.128.87-.256,1.74-.377,2.562-.172.155-.315.088-.448.082-1.283-.057-2.565-.129-3.848-.174a10.6,10.6,0,0,0-3.333.4,8.65,8.65,0,0,0-4.679,3.306,13.8,13.8,0,0,0-1.065,1.744,2.741,2.741,0,0,0-.308,1.211c-.008.241,0,.482,0,.722q0,15.59,0,31.18c0,.279-.01.557-.017.859" transform="translate(-1243.625 -217.417)" fill="#fff"></path><path id="Path_153" data-name="Path 153" d="M291.443,987.459a9.182,9.182,0,0,0,.724,1.238c.237.4.487.783.731,1.174s.494.779.735,1.172.5.761.695,1.147c-.038.06-.045.08-.059.09a.107.107,0,0,1-.057.015H292.2c-.086-.118-.185-.24-.268-.372q-1.111-1.753-2.218-3.508c-.117-.184-.244-.362-.349-.518a16.227,16.227,0,0,0-2.916.025,1.174,1.174,0,0,0-.081.644c0,1,0,2.005,0,3.008,0,.217-.017.434-.025.637a5.411,5.411,0,0,1-1.886.029,1,1,0,0,1-.077-.574c0-.922,0-1.845,0-2.767q0-4.242,0-8.483c0-.257.015-.515.024-.8a2.633,2.633,0,0,1,.431-.077q2.589-.007,5.177,0a4.026,4.026,0,0,1,3.765,3.163,4.169,4.169,0,0,1-.421,3.082,3.46,3.46,0,0,1-1.423,1.429c-.14.075-.282.146-.481.249m-5.006-1.43a.908.908,0,0,0,.191.046c1.144,0,2.288.01,3.432,0a1.541,1.541,0,0,0,1.022-.452,2.49,2.49,0,0,0,.756-1.469,2.39,2.39,0,0,0-2.38-2.911c-.843-.009-1.686,0-2.529,0-.156,0-.312.025-.476.04a.992.992,0,0,0-.076.248q-.009,2.106-.006,4.211a1.272,1.272,0,0,0,.065.283" transform="translate(-260.57 -897.564)" fill="#fff"></path><path id="Path_154" data-name="Path 154" d="M566.881,984.764a6.5,6.5,0,0,1,2.693-5.378,5.669,5.669,0,0,1,7.373.565,6.659,6.659,0,0,1,2,5.106,6.442,6.442,0,0,1-2.23,4.757,5.452,5.452,0,0,1-3.017,1.372,5.663,5.663,0,0,1-5.574-2.472,6.526,6.526,0,0,1-1.241-3.95m2.01-.152a5.139,5.139,0,0,0,1.3,3.655,3.671,3.671,0,0,0,4.19.894,3.839,3.839,0,0,0,1.672-1.425,5.289,5.289,0,0,0,.821-3.851,4.633,4.633,0,0,0-1.137-2.483,3.7,3.7,0,0,0-5.692.058,5.029,5.029,0,0,0-1.157,3.153" transform="translate(-519.44 -896.417)" fill="#fff"></path><path id="Path_155" data-name="Path 155" d="M1144.644,981.161c-.779,0-1.5.006-2.222.008-.7,0-1.406-.007-2.109,0-.719.009-1.439-.042-2.188.04a8.411,8.411,0,0,0-.066,1.8c-.013.6-.021,1.2.01,1.769a.934.934,0,0,0,.679.124c1.426.006,2.852,0,4.278,0,.218,0,.436.011.64.017a2.579,2.579,0,0,1,.034,1.509,1.325,1.325,0,0,1-.632.072c-1.406,0-2.812,0-4.218,0-.237,0-.475.017-.722.027a4.6,4.6,0,0,0-.071,1.285c-.013.441-.007.883,0,1.325a10.677,10.677,0,0,0,.028,1.258,1.317,1.317,0,0,0,.67.077c1.787,0,3.575,0,5.362,0a1.441,1.441,0,0,1,.671.07,8.253,8.253,0,0,1,.012,1.571.634.634,0,0,1-.079.071.129.129,0,0,1-.058.014q-4.066.01-8.132.017c-.119,0-.239-.014-.388-.023a3.1,3.1,0,0,1-.065-.34c-.011-.14,0-.281,0-.421q0-5.6,0-11.2v-.683a2.582,2.582,0,0,1,.356-.095,3.685,3.685,0,0,1,.421-.008q3.525,0,7.049,0a1.437,1.437,0,0,1,.734.086,6.37,6.37,0,0,1,.009,1.613" transform="translate(-1040.998 -897.488)" fill="#fff"></path><path id="Path_156" data-name="Path 156" d="M2.245,979.423c.225-.007.423-.02.622-.02,1.485,0,2.972.036,4.456-.01a4.029,4.029,0,0,1,4.049,3.341,4.218,4.218,0,0,1-1.14,3.885,3.519,3.519,0,0,1-2.59,1.1c-.943.009-1.887,0-2.83,0a1.313,1.313,0,0,0-.591.055,1.086,1.086,0,0,0-.091.646c0,1,0,2.006,0,3.009,0,.218-.014.436-.021.642a4.987,4.987,0,0,1-1.9.029c-.011-.125-.03-.26-.033-.4-.077-3.58-.037-11.62.073-12.282m1.967,1.743a.97.97,0,0,0-.07.241q-.009,2.1-.006,4.2a1.5,1.5,0,0,0,.065.3,3.315,3.315,0,0,0,.364.042c.981,0,1.962,0,2.943,0a1.7,1.7,0,0,0,1.4-.7,2.9,2.9,0,0,0,.135-3.165,2.1,2.1,0,0,0-1.828-.971c-.9-.017-1.8,0-2.7,0a1.9,1.9,0,0,0-.3.048" transform="translate(-1.954 -897.43)" fill="#fff"></path><path id="Path_157" data-name="Path 157" d="M1412.612,987.684a12.518,12.518,0,0,1,1.572.906,2.352,2.352,0,0,1-.12.343,4.355,4.355,0,0,1-1.516,1.6,6.131,6.131,0,0,1-3.355,1.006,5.4,5.4,0,0,1-3.862-1.562,6.71,6.71,0,0,1-2.14-4.452,6.384,6.384,0,0,1,2.421-5.736,6.029,6.029,0,0,1,6.567-.446,4.58,4.58,0,0,1,1.827,1.973,10.221,10.221,0,0,1-1.5,1.032c-.089-.135-.165-.247-.239-.361a3.733,3.733,0,0,0-6.293.2,5.215,5.215,0,0,0,.011,5.646,3.647,3.647,0,0,0,2.681,1.856,3.6,3.6,0,0,0,3.59-1.458c.12-.158.22-.331.36-.545" transform="translate(-1285.742 -896.683)" fill="#fff"></path><path id="Path_158" data-name="Path 158" d="M1701.093,981.266a2.724,2.724,0,0,0-.065.383c-.011.28-.005.561-.005.842q0,4.482,0,8.964a1.606,1.606,0,0,1-.076.734,2.717,2.717,0,0,1-.873.054c-.3.009-.6,0-.926,0a2.726,2.726,0,0,1-.075-.361c-.012-.18-.005-.361-.005-.541q0-4.662,0-9.325c0-.238-.008-.477-.011-.669a.6.6,0,0,0-.549-.163c-1,0-2.006,0-3.01,0-.219,0-.437-.01-.679-.015a6.815,6.815,0,0,1-.058-1.594,1.475,1.475,0,0,1,.7-.1q4.545,0,9.09,0a1.329,1.329,0,0,1,.685.086,6.158,6.158,0,0,1,.021,1.5c-.17.172-.361.118-.533.119-1,.006-2.007,0-3.01,0a1.206,1.206,0,0,0-.622.08" transform="translate(-1552.915 -897.503)" fill="#fff"></path></g></g></svg> 